<?xml version="1.0" encoding="iso-8859-1"?>
<!-- Generator: Adobe Illustrator 19.0.0, SVG Export Plug-In . SVG Version: 6.00 Build 0)  -->
<svg version="1.1" id="Layer_1" xmlns="http://www.w3.org/2000/svg" xmlns:xlink="http://www.w3.org/1999/xlink" x="0px" y="0px"
	 viewBox="0 0 512 512" style="enable-background:new 0 0 512 512;" xml:space="preserve">
<g>
	<g>
		<path d="M500.442,22.695h-130.6c-6.382,0-11.558,5.175-11.558,11.558v443.495c0,6.382,5.175,11.558,11.558,11.558h130.6
			c6.382,0,11.558-5.175,11.558-11.558V34.253C512,27.869,506.825,22.695,500.442,22.695z M488.885,466.189h-61.824V140.922
			c0-6.382-5.175-11.558-11.558-11.558s-11.558,5.175-11.558,11.558V466.19H381.4V45.81h107.485V466.189z"/>
	</g>
</g>
<g>
	<g>
		<path d="M142.158,115.214h-130.6C5.174,115.214,0,120.39,0,126.772v350.975c0,6.382,5.174,11.558,11.558,11.558h130.6
			c6.383,0,11.558-5.175,11.558-11.558V126.772C153.716,120.389,148.541,115.214,142.158,115.214z M130.6,466.189H69.374V233.44
			c0-6.382-5.174-11.558-11.558-11.558s-11.558,5.175-11.558,11.558v232.749H23.115V138.33H130.6V466.189z"/>
	</g>
</g>
<g>
	<g>
		<path d="M321.3,207.733H190.7c-6.383,0-11.558,5.175-11.558,11.558v258.456c0,6.382,5.174,11.558,11.558,11.558h130.6
			c6.382,0,11.558-5.175,11.558-11.558V219.29C332.858,212.908,327.682,207.733,321.3,207.733z M309.743,466.189h-61.226v-140.23
			c0-6.382-5.174-11.558-11.558-11.558s-11.558,5.175-11.558,11.558v140.23h-23.144V230.848h107.485V466.189z"/>
	</g>
</g>
<g>
	<g>
		<path d="M426.832,100.527c-0.15-0.74-0.369-1.468-0.658-2.161c-0.289-0.704-0.648-1.374-1.064-1.998
			c-0.415-0.636-0.9-1.226-1.432-1.758c-0.532-0.532-1.122-1.017-1.758-1.432c-0.624-0.416-1.294-0.774-1.998-1.063
			c-0.695-0.289-1.422-0.52-2.161-0.659c-1.491-0.301-3.028-0.301-4.519,0c-0.728,0.139-1.456,0.37-2.161,0.659
			c-0.693,0.289-1.364,0.647-1.988,1.063c-0.636,0.415-1.226,0.9-1.758,1.432c-0.532,0.532-1.017,1.122-1.445,1.758
			c-0.415,0.624-0.774,1.294-1.063,1.998c-0.289,0.695-0.507,1.422-0.658,2.161c-0.151,0.741-0.22,1.502-0.22,2.254
			c0,0.751,0.069,1.515,0.22,2.254c0.149,0.74,0.369,1.467,0.658,2.173c0.289,0.693,0.648,1.364,1.063,1.988
			c0.428,0.636,0.913,1.226,1.445,1.758c0.532,0.532,1.122,1.017,1.758,1.445c0.624,0.415,1.294,0.774,1.988,1.063
			c0.705,0.289,1.433,0.507,2.161,0.659c0.751,0.15,1.514,0.218,2.265,0.218s1.514-0.069,2.254-0.218
			c0.74-0.151,1.468-0.37,2.161-0.659c0.704-0.289,1.374-0.648,1.998-1.063c0.636-0.428,1.226-0.913,1.758-1.445
			c0.532-0.532,1.017-1.122,1.432-1.758c0.416-0.624,0.775-1.294,1.064-1.988c0.289-0.705,0.507-1.433,0.658-2.173
			s0.231-1.503,0.231-2.254C427.063,102.03,426.983,101.267,426.832,100.527z"/>
	</g>
</g>
<g>
	<g>
		<path d="M69.149,193.045c-0.15-0.74-0.37-1.468-0.659-2.16c-0.289-0.705-0.647-1.375-1.063-1.999
			c-0.416-0.636-0.901-1.225-1.433-1.757c-2.693-2.681-6.68-3.908-10.436-3.155c-0.74,0.15-1.468,0.37-2.161,0.659
			s-1.364,0.647-1.999,1.063c-0.624,0.415-1.214,0.901-1.745,1.433c-0.543,0.532-1.017,1.121-1.445,1.757
			c-0.416,0.624-0.774,1.294-1.063,1.999c-0.289,0.693-0.509,1.42-0.659,2.16c-0.15,0.741-0.22,1.504-0.22,2.254
			c0,0.751,0.069,1.515,0.22,2.265c0.15,0.727,0.37,1.456,0.659,2.161c0.289,0.695,0.647,1.365,1.063,1.988
			c0.428,0.637,0.901,1.226,1.445,1.758c0.532,0.532,1.121,1.017,1.745,1.445c0.636,0.416,1.306,0.774,1.999,1.052
			c0.693,0.289,1.422,0.52,2.161,0.67c0.751,0.139,1.503,0.218,2.265,0.218c0.751,0,1.514-0.08,2.254-0.218
			c0.74-0.15,1.468-0.381,2.161-0.67c0.693-0.277,1.375-0.636,1.999-1.052c0.624-0.428,1.225-0.913,1.757-1.445
			c0.532-0.532,1.017-1.121,1.433-1.758c0.416-0.623,0.774-1.293,1.063-1.988c0.289-0.704,0.509-1.433,0.659-2.161
			c0.15-0.75,0.231-1.514,0.231-2.265C69.38,194.549,69.299,193.785,69.149,193.045z"/>
	</g>
</g>
<g>
	<g>
		<path d="M248.291,285.563c-0.15-0.741-0.37-1.469-0.659-2.161c-0.289-0.705-0.647-1.375-1.063-1.999
			c-0.416-0.636-0.901-1.225-1.433-1.757c-2.693-2.681-6.68-3.919-10.437-3.155c-0.74,0.15-1.456,0.37-2.161,0.659
			c-0.693,0.289-1.364,0.647-1.999,1.063c-0.624,0.416-1.214,0.901-1.757,1.433c-0.532,0.532-1.006,1.121-1.433,1.757
			c-0.416,0.624-0.774,1.294-1.063,1.999c-0.289,0.693-0.509,1.42-0.659,2.161c-0.15,0.74-0.22,1.502-0.22,2.253
			c0,3.041,1.225,6.023,3.375,8.171c0.543,0.534,1.133,1.018,1.757,1.435c0.636,0.416,1.306,0.774,1.999,1.063
			s1.422,0.52,2.161,0.659c0.751,0.15,1.503,0.23,2.265,0.23c3.04,0,6.021-1.235,8.171-3.386c0.532-0.532,1.017-1.121,1.433-1.757
			c0.416-0.624,0.774-1.294,1.063-1.989c0.289-0.704,0.509-1.432,0.659-2.16c0.15-0.751,0.231-1.515,0.231-2.266
			C248.522,287.065,248.441,286.301,248.291,285.563z"/>
	</g>
</g>
<g>
</g>
<g>
</g>
<g>
</g>
<g>
</g>
<g>
</g>
<g>
</g>
<g>
</g>
<g>
</g>
<g>
</g>
<g>
</g>
<g>
</g>
<g>
</g>
<g>
</g>
<g>
</g>
<g>
</g>
</svg>
